<?xml version="1.0" encoding="UTF-8"?>
<svg width="128" height="128" viewBox="0 0 128 128" fill="none" xmlns="http://www.w3.org/2000/svg">
  <rect width="128" height="128" rx="20" fill="url(#gradient)"/>
  <defs>
    <linearGradient id="gradient" x1="0" y1="0" x2="128" y2="128" gradientUnits="userSpaceOnUse">
      <stop offset="0%" stop-color="#667eea"/>
      <stop offset="100%" stop-color="#764ba2"/>
    </linearGradient>
  </defs>
  
  <!-- Main globe -->
  <circle cx="64" cy="64" r="40" stroke="white" stroke-width="4" fill="none"/>
  <path d="M24 64h80" stroke="white" stroke-width="3"/>
  <path d="M64 24c-10 15-10 65 0 80" stroke="white" stroke-width="3"/>
  <path d="M64 24c10 15 10 65 0 80" stroke="white" stroke-width="3"/>
  
  <!-- Additional latitude lines -->
  <path d="M35 45h58" stroke="white" stroke-width="1.5" opacity="0.7"/>
  <path d="M35 83h58" stroke="white" stroke-width="1.5" opacity="0.7"/>
  
  <!-- Sound waves -->
  <path d="M90 48c5 5 5 22 0 32" stroke="white" stroke-width="3" stroke-linecap="round"/>
  <path d="M100 38c8 8 8 44 0 52" stroke="white" stroke-width="3" stroke-linecap="round"/>
  <path d="M110 28c11 11 11 66 0 72" stroke="white" stroke-width="2.5" stroke-linecap="round"/>
  
  <!-- YouTube play button hint -->
  <polygon points="45,50 45,78 70,64" fill="rgba(255,255,255,0.3)" stroke="white" stroke-width="1"/>
  
  <!-- AI/Tech decoration -->
  <circle cx="85" cy="25" r="3" fill="white" opacity="0.8"/>
  <circle cx="95" cy="30" r="2" fill="white" opacity="0.6"/>
  <circle cx="25" cy="100" r="2.5" fill="white" opacity="0.7"/>
  <circle cx="35" cy="105" r="1.5" fill="white" opacity="0.5"/>
</svg>